<svg width="40" height="41" viewBox="0 0 40 41" fill="none" xmlns="http://www.w3.org/2000/svg">
<g clip-path="url(#clip0_9_2)">
<path d="M0.0950012 40.1818L2.90667 29.8635C1.17167 26.8431 0.260001 23.4193 0.261668 19.9084C0.266668 8.93208 9.15834 0 20.0833 0C25.385 0.00167424 30.3617 2.07606 34.105 5.83976C37.8467 9.60345 39.9067 14.6061 39.905 19.9268C39.9 30.9048 31.0083 39.8369 20.0833 39.8369C16.7667 39.8352 13.4983 38.9998 10.6033 37.4126L0.0950012 40.1818V40.1818ZM11.09 33.808C13.8833 35.4738 16.55 36.4717 20.0767 36.4734C29.1567 36.4734 36.5533 29.0498 36.5583 19.9235C36.5617 10.7788 29.2 3.36523 20.09 3.36188C11.0033 3.36188 3.61167 10.7855 3.60833 19.9101C3.60667 23.6353 4.69333 26.4246 6.51834 29.3428L4.85333 35.4504L11.09 33.808V33.808ZM30.0683 24.6599C29.945 24.4523 29.615 24.3284 29.1183 24.079C28.6233 23.8295 26.1883 22.6257 25.7333 22.46C25.28 22.2942 24.95 22.2105 24.6183 22.7094C24.2883 23.2067 23.3383 24.3284 23.05 24.6599C22.7617 24.9914 22.4717 25.0333 21.9767 24.7838C21.4817 24.5343 19.885 24.0103 17.9933 22.3143C16.5217 20.995 15.5267 19.366 15.2383 18.867C14.95 18.3698 15.2083 18.1002 15.455 17.8524C15.6783 17.6298 15.95 17.2715 16.1983 16.9802C16.45 16.6922 16.5317 16.4846 16.6983 16.1514C16.8633 15.8199 16.7817 15.5286 16.6567 15.2791C16.5317 15.0313 15.5417 12.5819 15.13 11.5858C14.7267 10.6164 14.3183 10.747 14.015 10.7319L13.065 10.7152C12.735 10.7152 12.1983 10.839 11.745 11.338C11.2917 11.8369 10.0117 13.039 10.0117 15.4884C10.0117 17.9378 11.7867 20.3035 12.0333 20.635C12.2817 20.9665 15.525 25.9926 20.4933 28.1474C21.675 28.6597 22.5983 28.9661 23.3167 29.1954C24.5033 29.5738 25.5833 29.5202 26.4367 29.393C27.3883 29.2507 29.3667 28.1892 29.78 27.0273C30.1933 25.8637 30.1933 24.8675 30.0683 24.6599V24.6599Z" fill="#FAFAFA"/>
</g>
<defs>
<clipPath id="clip0_9_2">
<rect width="40" height="40.1818" fill="white"/>
</clipPath>
</defs>
</svg>
